# xmcd
#
# Track frame offsets:
#	150
#	15611
#	28678
#	47220
#	63643
#	76007
#	89669
#
# Disc length: 1375 seconds
#
# Revision: 1
# Processed by: cddbd v1.5.1PL0 Copyright (c) Steve Scherf et al.
# Submitted via: audiograbber 1.83.01
#
DISCID=53055d07
DTITLE=Bringerer - Trink! Sink! Tanz!
DYEAR=2005
DGENRE=Local Music
TTITLE0=Ice Castles
TTITLE1=Magic By Surprise
TTITLE2=Ketchup Bugs
TTITLE3=Halftime
TTITLE4=Birds of Summer
TTITLE5=This Week at Shawn's
TTITLE6=Paper Scissors
EXTD=
EXTT0=
EXTT1=
EXTT2=
EXTT3=
EXTT4=
EXTT5=
EXTT6=
PLAYORDER=
